# xmcd
#
# Track frame offsets:
#	150
#	27557
#	49717
#
# Disc length: 1010 seconds
#
# Revision: 1
# Processed by: cddbd v1.5.1PL0 Copyright (c) Steve Scherf et al.
# Submitted via: CDex 1.50Beta5
#
DISCID=2003f003
DTITLE=Rocking Time - 鍵のナンバー〜Key Of Love
DYEAR=1900
DGENRE=Pop
TTITLE0=鍵のナンバー〜Key Of Love
TTITLE1=家に帰ろう
TTITLE2=Gut Song
EXTD=
EXTT0=
EXTT1=
EXTT2=
PLAYORDER=
